<svg xmlns="http://www.w3.org/2000/svg" version="1.1" xmlns:xlink="http://www.w3.org/1999/xlink" xmlns:svgjs="http://svgjs.dev/svgjs" width="128" height="128" viewBox="0 0 128 128"><g transform="matrix(0.8046875,0,0,0.8046875,8.792220817748046,12.361294941011288)"><svg viewBox="0 0 98 102" data-background-color="#ffffff" preserveAspectRatio="xMidYMid meet" height="133" width="128" xmlns="http://www.w3.org/2000/svg" xmlns:xlink="http://www.w3.org/1999/xlink"><g id="tight-bounds" transform="matrix(1,0,0,1,4.443612243342642,0.20168540314455186)"><svg viewBox="0 0 89.11277567904851 95.481" height="95.481" width="89.11277567904851"><g><svg viewBox="0 0 89.11277567904851 95.481" height="95.481" width="89.11277567904851"><g><svg viewBox="0 0 89.11277567904851 95.481" height="95.481" width="89.11277567904851"><g id="textblocktransform"><svg viewBox="0 0 89.11277567904851 95.481" height="95.481" width="89.11277567904851" id="textblock"><g><svg viewBox="0 0 89.11277567904851 95.481" height="95.481" width="89.11277567904851"><g><svg viewBox="0 0 89.11277567904851 95.481" height="95.481" width="89.11277567904851"><g><svg xmlns="http://www.w3.org/2000/svg" data-name="Layer 1" viewBox="11.99979135413777 11.428076211353318 16.00041729172446 17.143847577293368" x="0" y="0" height="95.481" width="89.11277567904851" class="icon-icon-0" data-fill-palette-color="accent" id="icon-0"><path d="M26.46 14.64l-5-2.81a3 3 0 0 0-3 0l-5 2.81A3 3 0 0 0 12 17.25v5.5a3 3 0 0 0 1.54 2.61l5 2.81a3 3 0 0 0 3 0l5-2.81A3 3 0 0 0 28 22.75v-5.5A3 3 0 0 0 26.46 14.64ZM26 22.75a1 1 0 0 1-0.52 0.87l-5 2.81a1 1 0 0 1-1 0l-5-2.81a1 1 0 0 1-0.52-0.87v-5.5a1 1 0 0 1 0.52-0.87l5-2.81a1 1 0 0 1 1 0l5 2.81a1 1 0 0 1 0.52 0.87Z" fill="#49beb7" data-fill-palette-color="accent"></path><path d="M23 19H21V17a1 1 0 1 0-2 0v2H17a1 1 0 0 0 0 2h2v2a1 1 0 0 0 2 0V21h2a1 1 0 0 0 0-2Z" fill="#49beb7" data-fill-palette-color="accent"></path></svg></g></svg></g></svg></g></svg></g></svg></g></svg></g><defs></defs></svg><rect width="89.11277567904851" height="95.481" fill="none" stroke="none" visibility="hidden"></rect></g></svg></g></svg>