<svg xmlns="http://www.w3.org/2000/svg" version="1.1" xmlns:xlink="http://www.w3.org/1999/xlink" xmlns:svgjs="http://svgjs.dev/svgjs" width="1000" height="396" viewBox="0 0 1000 396"><g transform="matrix(1,0,0,1,-1.0204714288811942,22.495168698666447)"><svg viewBox="0 0 396 157" data-background-color="#ffffff" preserveAspectRatio="xMidYMid meet" height="396" width="1000" xmlns="http://www.w3.org/2000/svg" xmlns:xlink="http://www.w3.org/1999/xlink"><g id="tight-bounds" transform="matrix(1,0,0,1,0.4041066858369504,0.18937738664043025)"><svg viewBox="0 0 395.52 156.62124522671925" height="156.62124522671925" width="395.52"><g><svg viewBox="0 0 624.2610564005413 247.2" height="156.62124522671925" width="395.52"><g transform="matrix(1,0,0,1,254.91058278755074,0)"><svg viewBox="0 0 369.3504736129905 247.2" height="247.2" width="369.3504736129905"><g id="textblocktransform"><svg viewBox="0 0 369.3504736129905 247.2" height="247.2" width="369.3504736129905" id="textblock"><g><svg viewBox="0 0 369.3504736129905 247.2" height="247.2" width="369.3504736129905"><g transform="matrix(1,0,0,1,0,0)"><svg width="369.3504736129905" viewBox="1.2199999999999993 -30.759999999999994 103.52000000000001 66.05999999999999" height="247.2" data-palette-color="#0a6e7b"><svg></svg><svg></svg><g class="undefined-text-0" data-fill-palette-color="primary" id="text-0"><path d="M16.06 0.76c2.493 0 4.68-0.213 6.56-0.64 1.88-0.42 3.61-1.103 5.19-2.05v0-8.79l3.02-1 0.3-1.83h-13.58l-0.29 2.03 5.76 0.92v7.69c-0.453 0.267-1.05 0.503-1.79 0.71-0.74 0.213-1.543 0.32-2.41 0.32v0c-2.487 0-4.643-0.643-6.47-1.93-1.82-1.287-3.21-2.987-4.17-5.1-0.96-2.113-1.44-4.41-1.44-6.89v0c0-2.86 0.433-5.227 1.3-7.1 0.873-1.873 2.047-3.25 3.52-4.13 1.473-0.873 3.13-1.31 4.97-1.31v0c1.82 0 3.377 0.28 4.67 0.84 1.293 0.56 2.3 1.207 3.02 1.94v0l0.88 4.66 2.12 0.37 0.59-7.86c-1.187-0.753-2.62-1.337-4.3-1.75-1.673-0.413-3.513-0.62-5.52-0.62v0c-2.827 0-5.507 0.673-8.04 2.02-2.533 1.353-4.577 3.293-6.13 5.82-1.553 2.52-2.33 5.457-2.33 8.81v0c0 2.847 0.547 5.39 1.64 7.63 1.087 2.233 2.72 4 4.9 5.3 2.18 1.293 4.857 1.94 8.03 1.94zM32.37-28.52l4.45 1.03v24.54l-4.08 1.14-0.2 1.81h13.19l0.24-1.95-4.42-0.83v-24.81l4.13-0.93 0.24-1.85h-13.28zM46.97-2.54l0.2 2.54h22.85l1.39-8.18-2.27-0.39-3 6.13h-13.92l18.65-26.08v-1.85h-22.65l-0.25 7.88 2.2 0.44 1.88-6h13.11zM71.68-28.52l4.44 1.03v24.54l-4.07 1.14-0.2 1.81h13.18l0.25-1.95-4.42-0.83v-24.81l4.13-0.93 0.24-1.85h-13.28z" fill="#0a6e7b" fill-rule="nonzero" stroke="none" stroke-width="1" stroke-linecap="butt" stroke-linejoin="miter" stroke-miterlimit="10" stroke-dasharray="" stroke-dashoffset="0" font-family="none" font-weight="none" font-size="none" text-anchor="none" style="mix-blend-mode: normal" data-fill-palette-color="primary" opacity="1"></path><path transform="translate(0,34.64)" d="M15.7 0l0.34-2.03-5.79-0.95v-25.49c0.167-0.013 0.523-0.04 1.07-0.08 0.54-0.04 1.013-0.06 1.42-0.06v0c2.62 0 4.563 0.72 5.83 2.16 1.26 1.44 1.89 3.29 1.89 5.55v0c0 2.18-0.643 3.83-1.93 4.95-1.287 1.113-3.24 1.703-5.86 1.77v0l-1.29 0.02 0.44 2.03 0.7 0.02c0.72 0.033 1.3 0.05 1.74 0.05v0c1.987 0 3.84-0.41 5.56-1.23 1.727-0.827 3.107-1.98 4.14-3.46 1.033-1.48 1.55-3.157 1.55-5.03v0c0-3.287-1.123-5.583-3.37-6.89-2.247-1.313-5.207-1.97-8.88-1.97v0c-1.84 0-3.69 0.097-5.55 0.29-1.853 0.2-3.877 0.46-6.07 0.78v0l-0.25 1.88 4.18 0.74v24l-4.08 1.14-0.27 1.81zM26.05 0h24.17l0.9-8.08-2.07-0.32-3.2 6.06h-10.79v-25.03l4.17-1.15 0.25-1.85h-13.43l-0.32 1.85 4.59 1.25v24.32l-4.05 1.14zM55.66-27.49v16.04c0 4.64 1.13 7.817 3.39 9.53 2.253 1.72 5.12 2.58 8.6 2.58v0c4.187 0 7.263-1.09 9.23-3.27 1.967-2.18 2.967-5.5 3-9.96v0l0.12-15.02 4.06-0.93 0.27-1.85h-11.67l-0.25 1.85 4.47 1.03-0.07 15.72c-0.02 3.113-0.713 5.427-2.08 6.94-1.367 1.513-3.32 2.27-5.86 2.27v0c-2.62 0-4.69-0.81-6.21-2.43-1.52-1.62-2.28-4.107-2.28-7.46v0-15.14l4.12-0.93 0.22-1.85h-13.23l-0.32 1.85zM93.87 0.59c1.873 0 3.643-0.387 5.31-1.16 1.667-0.773 3.01-1.87 4.03-3.29 1.02-1.413 1.53-3.033 1.53-4.86v0c0-1.3-0.333-2.43-1-3.39-0.673-0.96-1.49-1.77-2.45-2.43-0.96-0.66-2.253-1.42-3.88-2.28v0c-1.56-0.847-2.793-1.57-3.7-2.17-0.9-0.607-1.663-1.35-2.29-2.23-0.627-0.873-0.94-1.897-0.94-3.07v0c0-1.533 0.413-2.69 1.24-3.47 0.833-0.78 1.9-1.17 3.2-1.17v0c0.607 0 1.2 0.127 1.78 0.38 0.587 0.253 1.09 0.563 1.51 0.93 0.413 0.36 0.7 0.697 0.86 1.01v0l0.61 4.66 2.42 0.29c0.047-0.7 0.137-1.83 0.27-3.39 0.127-1.56 0.217-2.723 0.27-3.49v0c-1.953-1.627-4.25-2.44-6.89-2.44v0c-1.64 0-3.187 0.34-4.64 1.02-1.447 0.687-2.617 1.68-3.51 2.98-0.9 1.307-1.35 2.847-1.35 4.62v0c0 1.527 0.373 2.853 1.12 3.98 0.74 1.12 1.633 2.043 2.68 2.77 1.053 0.72 2.433 1.537 4.14 2.45v0c1.38 0.747 2.467 1.383 3.26 1.91 0.787 0.52 1.45 1.133 1.99 1.84 0.533 0.707 0.8 1.507 0.8 2.4v0c0 1.14-0.287 2.093-0.86 2.86-0.58 0.767-1.313 1.337-2.2 1.71-0.887 0.373-1.793 0.56-2.72 0.56v0c-1.073 0-2.063-0.237-2.97-0.71-0.9-0.473-1.587-1.05-2.06-1.73v0l-0.95-4.59-2.49-0.34-0.32 7c0.827 0.813 1.977 1.49 3.45 2.03 1.473 0.54 3.057 0.81 4.75 0.81z" fill="#36d1dc" fill-rule="nonzero" stroke="none" stroke-width="1" stroke-linecap="butt" stroke-linejoin="miter" stroke-miterlimit="10" stroke-dasharray="" stroke-dashoffset="0" font-family="none" font-weight="none" font-size="none" text-anchor="none" style="mix-blend-mode: normal" data-fill-palette-color="secondary" opacity="1"></path></g></svg></g></svg></g></svg></g></svg></g><g transform="matrix(1,0,0,1,0,1.314735497639532)"><svg viewBox="0 0 228.25859269282813 244.57052900472092" height="244.57052900472092" width="228.25859269282813"><g><svg xmlns="http://www.w3.org/2000/svg" data-name="Layer 1" viewBox="11.99979135413777 11.428076211353318 16.00041729172446 17.143847577293368" x="0" y="0" height="244.57052900472092" width="228.25859269282813" class="icon-icon-0" data-fill-palette-color="accent" id="icon-0"><path d="M26.46 14.64l-5-2.81a3 3 0 0 0-3 0l-5 2.81A3 3 0 0 0 12 17.25v5.5a3 3 0 0 0 1.54 2.61l5 2.81a3 3 0 0 0 3 0l5-2.81A3 3 0 0 0 28 22.75v-5.5A3 3 0 0 0 26.46 14.64ZM26 22.75a1 1 0 0 1-0.52 0.87l-5 2.81a1 1 0 0 1-1 0l-5-2.81a1 1 0 0 1-0.52-0.87v-5.5a1 1 0 0 1 0.52-0.87l5-2.81a1 1 0 0 1 1 0l5 2.81a1 1 0 0 1 0.52 0.87Z" fill="#36d1dc" data-fill-palette-color="accent"></path><path d="M23 19H21V17a1 1 0 1 0-2 0v2H17a1 1 0 0 0 0 2h2v2a1 1 0 0 0 2 0V21h2a1 1 0 0 0 0-2Z" fill="#36d1dc" data-fill-palette-color="accent"></path></svg></g></svg></g></svg></g><defs></defs></svg><rect width="395.52" height="156.62124522671925" fill="none" stroke="none" visibility="hidden"></rect></g></svg></g></svg>